<svg width="34" height="34" viewBox="0 0 34 34" fill="none" xmlns="http://www.w3.org/2000/svg">
<path fill-rule="evenodd" clip-rule="evenodd" d="M27.5288 28.6864C27.1457 28.3581 26.8479 27.9639 26.6355 27.5038C26.0979 26.5074 25.7844 25.4509 25.6949 24.3342C27.5469 20.7036 27.9793 16.94 26.992 13.0436C26.2712 10.3589 24.9063 8.02149 22.8974 6.03109C19.9981 3.6895 16.7396 3.19985 13.1217 4.56216C10.6393 5.74537 8.95187 7.56853 8.05946 10.0317C5.90708 15.4673 6.55125 20.5478 9.99197 25.2733C12.383 28.1989 15.5543 29.3633 19.5056 28.7663C20.7982 29.591 22.1065 30.392 23.4302 31.169C16.5701 33.4864 10.555 32.3299 5.38471 27.6995C1.31419 23.3717 -0.0770902 18.3413 1.21087 12.6085C3.56549 5.29704 8.80591 1.33 16.9321 0.707439C23.8633 0.815073 28.8763 3.75185 31.971 9.51802C35.0331 16.8062 33.5523 23.1956 27.5288 28.6864Z" fill="#00632E"/>
<path fill-rule="evenodd" clip-rule="evenodd" d="M28.4822 31.1955C28.2235 30.9517 28.0417 30.7805 27.8246 30.6058C27.1018 30.1548 26.359 29.6823 25.6756 29.1866L25.5608 28.9628C25.5053 28.4584 25.4182 27.9575 25.2995 27.4601C25.0204 26.3578 24.4716 25.3575 23.6532 24.4593C23.7658 24.9733 23.8522 25.4902 23.9123 26.01C23.9228 26.3654 23.8958 26.7134 23.8311 27.0542C23.8212 26.2338 23.6111 25.4408 23.2008 24.6751C22.2325 23.0427 20.9667 21.5853 19.4033 20.303C19.6765 21.2063 19.7455 22.1077 19.6103 23.007C19.5581 22.1763 19.3487 21.3672 18.9822 20.5799C18.0681 18.9495 16.8064 17.5264 15.197 16.3104L15.151 16.3251C15.1528 16.6031 15.1762 16.8082 15.1978 16.9975C15.2304 17.2832 15.2589 17.5329 15.2028 17.9423C15.1876 17.3203 14.9787 16.9472 14.7171 16.4799C14.618 16.3028 14.5112 16.1121 14.4046 15.8893C13.6511 14.8643 12.7234 13.9616 11.6215 13.1814C10.7893 12.5602 9.87136 12.0688 8.86776 11.7071C9.34762 14.4139 10.2943 17.035 11.7076 19.5704C12.7226 21.4079 14.0466 23.0834 15.6799 24.5968C16.5765 25.3893 17.6205 25.9785 18.8119 26.3644C17.9836 26.185 17.1776 25.9379 16.394 25.6231L16.4148 25.6638C17.9866 27.1315 19.8187 28.2813 21.911 29.1132C22.8476 29.4369 23.7867 29.7519 24.7283 30.0581C26.4797 31.1808 28.2658 32.2585 30.0867 33.2912C30.1332 33.3087 30.1764 33.3146 30.2164 33.3088C29.8972 33.0473 29.8491 32.8905 29.8009 32.7334C29.7526 32.5761 29.7043 32.4185 29.3832 32.1549C29.3467 32.1045 29.2412 31.997 29.1235 31.8771C28.9456 31.6958 28.7399 31.4861 28.7022 31.4022C28.6223 31.3274 28.5497 31.259 28.4822 31.1955ZM13.7538 18.3312C13.511 18.0197 13.2683 17.7082 12.9781 17.3707C12.925 17.309 12.8852 17.2927 12.8515 17.279C12.823 17.2673 12.7989 17.2575 12.7748 17.2234C13.2493 18.1242 13.7908 19.0034 14.3992 19.8608C15.1427 20.9022 15.9205 21.923 16.7324 22.9233C16.8803 23.0731 16.998 23.2071 17.115 23.3403C17.2415 23.4843 17.3673 23.6275 17.5298 23.7889C18.5822 24.8342 19.7384 25.7902 20.9983 26.6568C21.562 27.0051 22.1168 27.2745 22.6625 27.4648C21.6284 26.802 20.6939 26.051 19.8593 25.2119C19.1568 24.6568 18.541 24.0334 18.0116 23.3418C17.9332 23.253 17.877 23.1838 17.8247 23.1193C17.7139 22.9827 17.6203 22.8674 17.3681 22.632C16.8765 22.1116 16.7603 21.9712 16.5732 21.7451C16.5207 21.6817 16.4626 21.6115 16.389 21.5242C15.7041 20.8258 15.0842 20.0816 14.5296 19.2916C14.2394 18.9541 13.9966 18.6426 13.7538 18.3312Z" fill="#ECAE2E"/>
</svg>
