<svg width="26" height="19" viewBox="0 0 26 19" fill="none" xmlns="http://www.w3.org/2000/svg">
<path d="M0 0H25V19H0V0Z" fill="#41479B"/>
<path d="M25 16.5261L15.7552 9.50002L25 2.47396V0H21.7448L12.5 7.02606L3.25521 0H0V2.47396L9.2448 9.50002L0 16.5261V19H3.25525L12.5 11.974L21.7448 19H25V16.5261Z" fill="white"/>
<path d="M1.29785 0L12.4951 8.50977L23.6924 0H24.9951L25.1396 0.194336V0.878906L13.7969 9.5L25.1396 18.1191V18.8037L25.1006 18.8574H23.5059L12.4951 10.4893L1.48438 18.8574H-0.00292969V18.0078L11.1924 9.5L-0.00292969 0.990234V0H1.29785Z" fill="#DC251C"/>
<path fill-rule="evenodd" clip-rule="evenodd" d="M9.375 6.33333V0H15.625V6.33333H25V12.6667H15.625V19H9.375V12.6667H0V6.33333H9.375Z" fill="white"/>
<path fill-rule="evenodd" clip-rule="evenodd" d="M10.9375 7.91667V0H14.0625V7.91667H25V11.0833H14.0625V19H10.9375V11.0833H0V7.91667H10.9375Z" fill="#DC251C"/>
</svg>
