<svg width="80" height="70" viewBox="0 0 80 70" fill="none" xmlns="http://www.w3.org/2000/svg">
<path d="M30.6204 14.7406L31.1377 10.1662L33.4368 14.1546C35.8203 18.2904 39.1418 21.8086 43.1339 24.4259C47.1259 27.0432 51.6769 28.6863 56.4202 29.223L60.9948 29.7395L57.0063 32.0385C52.8705 34.4222 49.3524 37.7438 46.7354 41.7359C44.1183 45.7279 42.4754 50.2788 41.939 55.022L41.4217 59.5955L39.1226 55.6071C36.7389 51.4716 33.4173 47.9538 29.4253 45.3368C25.4332 42.7198 20.8823 41.0769 16.1392 40.5404L11.5646 40.0231L15.5531 37.7241C19.689 35.3405 23.2073 32.0189 25.8245 28.0269C28.4417 24.0348 30.0839 19.4839 30.6204 14.7406Z" fill="#2ECC71" stroke="black" stroke-width="2.49382"/>
<path d="M65.2703 34.8739C66.2007 39.4431 66.2024 49.2381 58.7732 51.864M65.2268 34.7505C66.8233 37.3285 71.8726 41.8282 79.3019 39.2032C71.8726 41.8291 72.1657 52.4456 73.2404 57.4253C71.5274 54.5185 66.2459 49.3615 58.8166 51.9874M10.4829 24.3565C11.648 19.8177 15.8096 10.9662 23.138 11.8626M10.4663 24.4869C10.2281 21.4549 7.91862 15.1667 0.59021 14.2703C7.91775 15.1667 12.1863 5.44483 13.4045 0.471287C13.601 3.8519 15.8253 10.8357 23.1537 11.7313" stroke="black" stroke-width="2.01644" stroke-linecap="round"/>
</svg>
