<svg width="153" height="48" viewBox="0 0 153 48" fill="none" xmlns="http://www.w3.org/2000/svg">
<path fill-rule="evenodd" clip-rule="evenodd" d="M33.1845 40.7435C32.7359 40.2226 32.4088 39.6245 32.203 38.9487C31.6564 37.4722 31.411 35.9494 31.467 34.3801C34.4415 29.6345 35.5865 24.4677 34.902 18.8797C34.3774 15.0228 32.9597 11.5421 30.6491 8.43728C27.2324 4.69547 23.0614 3.47176 18.1359 4.76612C14.7179 6.00012 12.237 8.25715 10.6934 11.5374C7.04847 18.7454 7.10299 25.9245 10.857 33.0748C13.5211 37.545 17.4741 39.6933 22.7159 39.5197C24.2731 40.8828 25.8543 42.2153 27.4595 43.5172C18.1609 45.6016 10.5004 42.991 4.47769 35.6854C-0.158526 28.984 -1.19447 21.7504 1.36983 13.9848C5.56819 4.19913 13.0107 -0.450998 23.6973 0.0344104C32.7139 1.33743 38.7933 6.25939 41.9355 14.8006C44.8001 25.455 41.883 34.1026 33.1845 40.7435Z" fill="#00632E"/>
<path d="M44.7945 33.9258C45.3674 33.1445 45.8362 32.4935 46.2007 31.9727C46.5132 31.556 46.6955 31.1914 46.7476 30.8789C46.8257 30.5664 46.8127 30.332 46.7086 30.1758C46.6044 30.0195 46.4481 29.9674 46.2398 30.0195C46.0315 30.0456 45.8231 30.1758 45.6148 30.4102C45.4586 30.6185 45.1981 30.944 44.8336 31.3867C44.495 31.8294 44.1044 32.3372 43.6617 32.9102C43.219 33.4831 42.7372 34.082 42.2164 34.707C41.7216 35.306 41.2398 35.8659 40.7711 36.3867C40.3023 36.8815 39.8596 37.2982 39.4429 37.6367C39.0263 37.9492 38.6877 38.1055 38.4273 38.1055C38.1148 38.1055 37.8674 38.0404 37.6851 37.9102C37.5289 37.7539 37.4117 37.5586 37.3336 37.3242C37.2554 37.0898 37.2033 36.8424 37.1773 36.582C37.1773 36.2956 37.1903 36.0352 37.2164 35.8008L37.4117 34.8242C37.4638 34.5638 35.134 34.9284 35.16 34.7461C35.134 35.4492 34.9247 37.4805 35.0289 37.9492C35.1591 38.418 35.2893 38.7956 35.4195 39.082C35.5757 39.4206 35.7711 39.681 36.0054 39.8633C36.2398 40.0195 36.5132 40.1237 36.8257 40.1758C37.1382 40.2539 37.4638 40.2799 37.8023 40.2539C38.1669 40.2279 38.5185 40.1628 38.857 40.0586C39.1955 39.9544 39.495 39.8242 39.7554 39.668C40.1461 39.4076 40.6278 38.9648 41.2007 38.3398C41.7997 37.6888 42.3987 36.9857 42.9976 36.2305C43.6226 35.4492 44.2216 34.681 44.7945 33.9258Z" fill="#00632E"/>
<path fill-rule="evenodd" clip-rule="evenodd" d="M33.2734 43.4643C33.5962 43.8163 33.8462 44.1511 34.2942 44.7188C34.3541 44.9234 34.9652 45.6882 35.0654 45.8799C35.8201 46.7197 35.2211 46.7897 35.9729 47.6247C35.9199 47.6261 35.8645 47.6108 35.8066 47.5786C33.5931 45.8382 31.4319 44.0409 29.3228 42.1867C28.143 41.6039 26.9677 41.0092 25.7971 40.4027C23.1989 38.8967 20.9889 36.9914 19.1672 34.6868C19.1603 34.6668 19.1533 34.6467 19.1463 34.6267C20.1189 35.1953 21.1312 35.6733 22.183 36.0608C20.69 35.3255 19.4204 34.3316 18.3743 33.0793C16.4796 30.701 15.0129 28.1484 13.9741 25.4218C12.5238 21.6575 11.6951 17.8514 11.488 14.0038C12.74 14.6743 13.8604 15.511 14.8489 16.5141C16.1645 17.7836 17.234 19.1944 18.0577 20.7465C18.438 21.9397 18.886 22.5396 18.7808 23.7371C19.0074 22.8051 18.8612 22.4488 18.963 21.4774C18.9838 21.4731 19.0046 21.4688 19.0254 21.4645C20.9349 23.4249 22.3593 25.6158 23.2987 28.0373C23.6547 29.1942 23.8025 30.3552 23.7423 31.5203C24.0574 30.2909 24.1067 29.0248 23.8902 27.722C25.7296 29.767 27.1541 32.0062 28.1638 34.4396C28.5802 35.5737 28.7315 36.7125 28.6177 37.8561C28.7546 37.3925 28.8436 36.9126 28.8848 36.4162C28.8868 35.6826 28.8541 34.9487 28.7867 34.2144C29.7146 35.601 30.2752 37.0846 30.4687 38.6654C30.5465 39.3775 30.5826 40.0892 30.577 40.8007C30.6153 40.9108 30.6537 41.021 30.692 41.1312C31.5061 41.935 32.4012 42.7162 33.2734 43.4643Z" fill="#ECAE2E"/>
<path fill-rule="evenodd" clip-rule="evenodd" d="M15.9697 22.5713C16.6217 23.6075 17.0428 24.4671 17.6949 25.5033C18.2956 26.6952 18.9885 27.8343 19.7732 28.9203C20.1491 29.5303 20.1604 29.5927 20.8781 30.6253C21.3082 31.1692 21.3309 31.2941 21.6071 31.7203C22.19 32.7711 22.8964 33.7412 23.7261 34.6308C24.6842 35.9378 25.7859 37.1386 27.0312 38.2332C26.3494 37.8775 25.6681 37.4103 24.9872 36.8316C23.4792 35.4157 22.1201 33.8927 20.9101 32.2626C20.5503 31.7779 20.3577 31.4101 20.0045 30.925C19.101 29.3975 18.2451 27.8471 17.437 26.2738C16.7766 24.9791 16.2068 23.6653 15.7274 22.3323C15.7847 22.4447 15.8595 22.3963 15.9697 22.5713Z" fill="white"/>
<path fill-rule="evenodd" clip-rule="evenodd" d="M36.2384 47.6774C37.313 47.724 41.754 47.6446 44.2489 47.5195C48.06 47.3021 51.8048 47.0021 55.4832 46.6195C59.854 46.1394 64.2175 45.6533 68.5735 45.1609C72.369 44.7276 76.2441 44.3863 80.1985 44.1369C83.0005 43.9544 85.8009 43.9544 88.5998 44.1369C90.9992 44.2933 91.3394 44.7385 92.106 45.5C92.6093 46 92.2488 46.9321 93.0935 47.116C94.6372 47.2722 96.2002 47.2929 97.7826 47.1781C98.8021 47.1204 99.8117 47.048 100.811 46.9609C105.631 46.4434 110.45 45.9262 115.269 45.4092C118.766 45.0495 122.348 44.9047 126.015 44.9747C127.94 45.0433 129.828 45.1674 131.681 45.3471C134.342 45.6051 137.013 45.8533 139.691 46.0919C142.148 46.322 144.656 46.4513 147.213 46.4799C148.827 46.4713 150.422 46.4248 152 46.3402C149.21 46.6399 146.344 46.7433 143.403 46.6505C141.923 46.6084 140.458 46.536 139.007 46.4333C135.95 46.1914 132.888 45.9535 129.825 45.7195C126.626 45.5237 123.435 45.534 120.251 45.7506C118.067 45.9085 115.918 46.105 113.804 46.3402C109.783 46.8384 105.712 47.2935 101.592 47.7057C99.1717 47.9463 96.6968 48.0394 94.1681 47.985C92.6749 47.9469 92.6093 48 91.6027 47.5C90.596 46.5 91.1368 46.0308 90.4559 45.4713C90.2887 45.1903 89.7677 45.0041 88.8928 44.9127C88.3181 44.8555 87.732 44.8141 87.1344 44.7885C83.3733 44.7204 79.6938 44.8653 76.0956 45.223C70.6564 45.7714 65.2185 46.3196 59.7815 46.8678C54.4862 47.3866 49.0806 47.728 43.5651 47.8919C41.5011 47.9332 39.4497 47.9021 37.4107 47.7988C37.0786 47.7653 36.5576 47.7164 36.2384 47.6774Z" fill="#0C0D0B"/>
<path d="M66.041 30.8379C65.6582 31.3848 65.166 32.0684 64.5645 32.8887C63.9629 33.6816 63.334 34.4883 62.6777 35.3086C62.0488 36.1016 61.4199 36.8398 60.791 37.5234C60.1895 38.1797 59.6836 38.6445 59.2734 38.918C59 39.082 58.6855 39.2188 58.3301 39.3281C57.9746 39.4375 57.6055 39.5059 57.2227 39.5332C56.8672 39.5605 56.5254 39.5332 56.1973 39.4512C55.8691 39.3965 55.582 39.2871 55.3359 39.123C55.0898 38.9316 54.8848 38.6582 54.7207 38.3027C54.584 38.002 54.4473 37.6055 54.3105 37.1133C54.2012 36.6211 54.1602 36.0059 54.1875 35.2676C53.5312 36.3613 52.8066 37.209 52.0137 37.8105C51.2207 38.3848 50.4688 38.8086 49.7578 39.082C48.9375 39.3828 48.1172 39.5605 47.2969 39.6152C46.9141 39.6152 46.5039 39.4785 46.0664 39.2051C45.6289 38.959 45.2598 38.5625 44.959 38.0156C44.6582 37.4414 44.4668 36.7168 44.3848 35.8418C44.3027 34.9395 44.4121 33.873 44.7129 32.6426C45.0957 30.9746 45.6973 29.457 46.5176 28.0898C47.3652 26.7227 48.2812 25.5605 49.2656 24.6035C50.25 23.6191 51.2207 22.8809 52.1777 22.3887C53.1348 21.8965 53.9277 21.6777 54.5566 21.7324C55.2949 21.8691 55.8965 22.0879 56.3613 22.3887C56.7441 22.6621 56.9902 23.0723 57.0996 23.6191C57.2363 24.1387 57.0176 24.8359 56.4434 25.7109C56.8262 25.6289 57.1406 25.5742 57.3867 25.5469C57.6602 25.5195 57.8652 25.5059 58.002 25.5059C58.166 25.5059 58.2754 25.5195 58.3301 25.5469C58.3574 25.6016 58.3711 25.7246 58.3711 25.916C58.3711 26.0801 58.3301 26.3945 58.248 26.8594C58.166 27.3242 58.043 27.9531 57.8789 28.7461C57.7148 29.5391 57.4961 30.5645 57.2227 31.8223C57.168 32.0684 57.1133 32.3008 57.0586 32.5195C57.0312 32.7109 56.9902 32.916 56.9355 33.1348C56.9082 33.3262 56.8672 33.5586 56.8125 33.832C56.7578 34.1055 56.6895 34.4473 56.6074 34.8574C56.5801 35.1035 56.5664 35.377 56.5664 35.6777C56.5938 35.9512 56.6484 36.2109 56.7305 36.457C56.8125 36.7031 56.9355 36.9082 57.0996 37.0723C57.291 37.209 57.5508 37.2773 57.8789 37.2773C58.1523 37.2773 58.5078 37.1133 58.9453 36.7852C59.3828 36.4297 59.8477 35.9922 60.3398 35.4727C60.832 34.9258 61.3379 34.3379 61.8574 33.709C62.4043 33.0527 62.9102 32.4238 63.375 31.8223C63.8398 31.2207 64.25 30.6875 64.6055 30.2227C64.9883 29.7578 65.2617 29.416 65.4258 29.1973C65.6445 28.9512 65.8633 28.8145 66.082 28.7871C66.3008 28.7324 66.4648 28.7871 66.5742 28.9512C66.6836 29.1152 66.6973 29.3613 66.6152 29.6895C66.5605 30.0176 66.3691 30.4004 66.041 30.8379ZM54.0234 32.6426C54.1602 32.0957 54.3242 31.4531 54.5156 30.7148C54.707 29.9766 54.8711 29.2656 55.0078 28.582C55.1445 27.8984 55.2402 27.3379 55.2949 26.9004C55.377 26.4355 55.3633 26.2168 55.2539 26.2441C55.1172 26.2715 54.9668 26.3125 54.8027 26.3672C54.666 26.4219 54.4883 26.4629 54.2695 26.4902C54.0508 26.5176 53.832 26.5586 53.6133 26.6133C53.832 26.1758 53.9551 25.8203 53.9824 25.5469C54.0371 25.2461 54.0508 25.0137 54.0234 24.8496C53.9961 24.6582 53.9414 24.5078 53.8594 24.3984C53.5586 24.1523 53.0254 24.3574 52.2598 25.0137C51.5215 25.6426 50.6602 26.8184 49.6758 28.541C49.2656 29.252 48.9375 30.0176 48.6914 30.8379C48.4453 31.6309 48.2676 32.3828 48.1582 33.0938C48.0762 33.8047 48.0625 34.4336 48.1172 34.9805C48.1719 35.5 48.2812 35.8418 48.4453 36.0059C48.7461 36.3066 49.0879 36.457 49.4707 36.457C49.8535 36.4297 50.2363 36.3203 50.6191 36.1289C51.0293 35.9102 51.4258 35.6367 51.8086 35.3086C52.2188 34.9805 52.5742 34.6387 52.875 34.2832C53.2031 33.9277 53.4629 33.5996 53.6543 33.2988C53.873 32.998 53.9961 32.7793 54.0234 32.6426Z" fill="#00632E"/>
<path d="M62.6777 38.3438C63.8809 33.2852 64.8379 29.2246 65.5488 26.1621C66.2871 23.0996 66.8477 20.7617 67.2305 19.1484C67.668 17.2344 67.9688 15.9082 68.1328 15.1699C68.2148 14.6504 68.2832 14.1445 68.3379 13.6523C68.3926 13.2148 68.4199 12.7637 68.4199 12.2988C68.4199 11.834 68.3789 11.4102 68.2969 11.0273C68.5156 10.8906 68.748 10.7812 68.9941 10.6992C69.2676 10.6172 69.5273 10.5488 69.7734 10.4941C70.0742 10.4121 70.375 10.3438 70.6758 10.2891C70.9766 10.2344 71.25 10.207 71.4961 10.207C71.7148 10.207 71.9199 10.2344 72.1113 10.2891C72.3027 10.3164 72.4258 10.3984 72.4805 10.5352C72.6445 10.6719 72.7129 10.9453 72.6855 11.3555C72.6855 11.7656 72.6582 12.1895 72.6035 12.627C72.4941 13.1465 72.3711 13.707 72.2344 14.3086C71.9062 15.4844 71.4551 17.1797 70.8809 19.3945C70.3887 21.2812 69.7188 23.8516 68.8711 27.1055C68.0508 30.3594 67.0117 34.4609 65.7539 39.4102C65.6172 39.5469 65.4531 39.6426 65.2617 39.6973C65.0703 39.752 64.8926 39.7793 64.7285 39.7793C64.5371 39.7793 64.332 39.7656 64.1133 39.7383C63.9219 39.6836 63.7305 39.6016 63.5391 39.4922C63.375 39.3828 63.2109 39.2324 63.0469 39.041C62.8828 38.877 62.7598 38.6445 62.6777 38.3438Z" fill="#00632E"/>
<path d="M93.5215 30.8379C93.1387 31.3848 92.6465 32.0684 92.0449 32.8887C91.4434 33.6816 90.8145 34.4883 90.1582 35.3086C89.5293 36.1016 88.9004 36.8398 88.2715 37.5234C87.6699 38.1797 87.1641 38.6445 86.7539 38.918C86.4805 39.082 86.166 39.2188 85.8105 39.3281C85.4551 39.4375 85.0859 39.5059 84.7031 39.5332C84.3477 39.5605 84.0059 39.5332 83.6777 39.4512C83.3496 39.3965 83.0625 39.2871 82.8164 39.123C82.5703 38.9316 82.3652 38.6582 82.2012 38.3027C82.0645 38.002 81.9277 37.6055 81.791 37.1133C81.6816 36.6211 81.6406 36.0059 81.668 35.2676C81.0117 36.3613 80.2871 37.209 79.4941 37.8105C78.7012 38.3848 77.9492 38.8086 77.2383 39.082C76.418 39.3828 75.5977 39.5605 74.7773 39.6152C74.3945 39.6152 73.9844 39.4785 73.5469 39.2051C73.1094 38.959 72.7402 38.5625 72.4395 38.0156C72.1387 37.4414 71.9473 36.7168 71.8652 35.8418C71.7832 34.9395 71.8926 33.873 72.1934 32.6426C72.5762 30.9746 73.1777 29.457 73.998 28.0898C74.8457 26.7227 75.7617 25.5605 76.7461 24.6035C77.7305 23.6191 78.7012 22.8809 79.6582 22.3887C80.6152 21.8965 81.4082 21.6777 82.0371 21.7324C82.7754 21.8691 83.377 22.0879 83.8418 22.3887C84.2246 22.6621 84.4707 23.0723 84.5801 23.6191C84.7168 24.1387 84.498 24.8359 83.9238 25.7109C84.3066 25.6289 84.6211 25.5742 84.8672 25.5469C85.1406 25.5195 85.3457 25.5059 85.4824 25.5059C85.6465 25.5059 85.7559 25.5195 85.8105 25.5469C85.8379 25.6016 85.8516 25.7246 85.8516 25.916C85.8516 26.0801 85.8105 26.3945 85.7285 26.8594C85.6465 27.3242 85.5234 27.9531 85.3594 28.7461C85.1953 29.5391 84.9766 30.5645 84.7031 31.8223C84.6484 32.0684 84.5938 32.3008 84.5391 32.5195C84.5117 32.7109 84.4707 32.916 84.416 33.1348C84.3887 33.3262 84.3477 33.5586 84.293 33.832C84.2383 34.1055 84.1699 34.4473 84.0879 34.8574C84.0605 35.1035 84.0469 35.377 84.0469 35.6777C84.0742 35.9512 84.1289 36.2109 84.2109 36.457C84.293 36.7031 84.416 36.9082 84.5801 37.0723C84.7715 37.209 85.0312 37.2773 85.3594 37.2773C85.6328 37.2773 85.9883 37.1133 86.4258 36.7852C86.8633 36.4297 87.3281 35.9922 87.8203 35.4727C88.3125 34.9258 88.8184 34.3379 89.3379 33.709C89.8848 33.0527 90.3906 32.4238 90.8555 31.8223C91.3203 31.2207 91.7305 30.6875 92.0859 30.2227C92.4688 29.7578 92.7422 29.416 92.9062 29.1973C93.125 28.9512 93.3438 28.8145 93.5625 28.7871C93.7812 28.7324 93.9453 28.7871 94.0547 28.9512C94.1641 29.1152 94.1777 29.3613 94.0957 29.6895C94.041 30.0176 93.8496 30.4004 93.5215 30.8379ZM81.5039 32.6426C81.6406 32.0957 81.8047 31.4531 81.9961 30.7148C82.1875 29.9766 82.3516 29.2656 82.4883 28.582C82.625 27.8984 82.7207 27.3379 82.7754 26.9004C82.8574 26.4355 82.8438 26.2168 82.7344 26.2441C82.5977 26.2715 82.4473 26.3125 82.2832 26.3672C82.1465 26.4219 81.9688 26.4629 81.75 26.4902C81.5312 26.5176 81.3125 26.5586 81.0938 26.6133C81.3125 26.1758 81.4355 25.8203 81.4629 25.5469C81.5176 25.2461 81.5312 25.0137 81.5039 24.8496C81.4766 24.6582 81.4219 24.5078 81.3398 24.3984C81.0391 24.1523 80.5059 24.3574 79.7402 25.0137C79.002 25.6426 78.1406 26.8184 77.1562 28.541C76.7461 29.252 76.418 30.0176 76.1719 30.8379C75.9258 31.6309 75.748 32.3828 75.6387 33.0938C75.5566 33.8047 75.543 34.4336 75.5977 34.9805C75.6523 35.5 75.7617 35.8418 75.9258 36.0059C76.2266 36.3066 76.5684 36.457 76.9512 36.457C77.334 36.4297 77.7168 36.3203 78.0996 36.1289C78.5098 35.9102 78.9062 35.6367 79.2891 35.3086C79.6992 34.9805 80.0547 34.6387 80.3555 34.2832C80.6836 33.9277 80.9434 33.5996 81.1348 33.2988C81.3535 32.998 81.4766 32.7793 81.5039 32.6426Z" fill="#00632E"/>
<path d="M109.887 37.1133C109.887 36.5391 109.941 35.8828 110.051 35.1445C110.188 34.4062 110.352 33.6543 110.543 32.8887C110.734 32.0957 110.926 31.3301 111.117 30.5918C111.309 29.8535 111.473 29.1973 111.609 28.623C111.773 27.9121 111.76 27.3652 111.568 26.9824C111.377 26.5996 111.049 26.4082 110.584 26.4082C110.365 26.4082 109.928 26.5996 109.271 26.9824C108.643 27.3652 107.945 28.0352 107.18 28.9922C106.441 29.9219 105.703 31.1934 104.965 32.8066C104.254 34.3926 103.693 36.416 103.283 38.877C102.764 39.1504 102.271 39.3281 101.807 39.4102C101.561 39.4648 101.342 39.5059 101.15 39.5332C100.604 39.5605 100.248 39.4648 100.084 39.2461C99.9199 39.0547 99.9473 38.5625 100.166 37.7695C100.275 37.3867 100.467 36.7715 100.74 35.9238C101.041 35.0762 101.328 34.1602 101.602 33.1758C101.875 32.1641 102.107 31.166 102.299 30.1816C102.518 29.1699 102.627 28.2949 102.627 27.5566C102.627 27.0371 102.531 26.6816 102.34 26.4902C102.176 26.2988 101.93 26.2031 101.602 26.2031C101.355 26.2031 100.945 26.3398 100.371 26.6133C99.7969 26.8867 99.1543 27.4199 98.4434 28.2129C97.7324 29.0059 97.0215 30.1133 96.3105 31.5352C95.627 32.9297 95.0391 34.748 94.5469 36.9902V36.9082C94.4922 37.127 94.4375 37.3457 94.3828 37.5645C94.3281 37.7559 94.2871 37.9609 94.2598 38.1797C94.2324 38.3984 94.1914 38.6035 94.1367 38.7949L92.0859 39.6973C91.9492 39.752 91.7715 39.793 91.5527 39.8203C91.3613 39.8477 91.1699 39.8066 90.9785 39.6973C90.8145 39.6152 90.6914 39.4238 90.6094 39.123C90.5273 38.8223 90.5547 38.3711 90.6914 37.7695L93.2754 27.0645C93.3574 26.709 93.4258 26.3672 93.4805 26.0391C93.5352 25.7383 93.5625 25.4512 93.5625 25.1777C93.5898 24.877 93.5762 24.6309 93.5215 24.4395C93.9863 24.2207 94.3965 24.0566 94.752 23.9473C95.1074 23.8379 95.3945 23.7559 95.6133 23.7012C95.8867 23.6191 96.1191 23.5781 96.3105 23.5781C97.1855 23.5781 97.4727 24.3301 97.1719 25.834C97.0625 26.2715 96.8984 26.9141 96.6797 27.7617C97.1992 27.1055 97.7461 26.4902 98.3203 25.916C98.9219 25.3145 99.5234 24.7812 100.125 24.3164C100.727 23.8516 101.328 23.4824 101.93 23.209C102.559 22.9355 103.174 22.7988 103.775 22.7988C104.24 22.7988 104.623 22.9355 104.924 23.209C105.252 23.4824 105.498 23.8516 105.662 24.3164C105.854 24.7539 105.963 25.2871 105.99 25.916C106.018 26.5176 105.99 27.1465 105.908 27.8027C106.346 27.2285 106.824 26.6543 107.344 26.0801C107.891 25.4785 108.451 24.9453 109.025 24.4805C109.627 24.0156 110.242 23.6328 110.871 23.332C111.5 23.0312 112.129 22.8809 112.758 22.8809C113.496 22.8809 114.057 23.0996 114.439 23.5371C114.85 23.9746 115.123 24.5352 115.26 25.2188C115.424 25.9023 115.465 26.6406 115.383 27.4336C115.328 28.2266 115.219 28.9922 115.055 29.7305L113.66 35.2676C113.359 36.6348 113.646 37.3184 114.521 37.3184C115.205 37.3184 115.957 36.9902 116.777 36.334C117.598 35.6777 118.391 34.8984 119.156 33.9961C119.949 33.0938 120.688 32.1641 121.371 31.207C122.055 30.25 122.629 29.4844 123.094 28.9102C123.258 28.7188 123.422 28.6094 123.586 28.582C123.777 28.5547 123.928 28.5957 124.037 28.7051C124.174 28.7871 124.242 28.9375 124.242 29.1562C124.27 29.375 124.201 29.6484 124.037 29.9766C123.49 30.9336 122.82 32 122.027 33.1758C121.234 34.3242 120.359 35.4043 119.402 36.416C118.473 37.4277 117.475 38.2754 116.408 38.959C115.342 39.6426 114.234 39.9844 113.086 39.9844C112.703 39.9844 112.32 39.9434 111.938 39.8613C111.582 39.7793 111.24 39.6289 110.912 39.4102C110.611 39.1914 110.365 38.9043 110.174 38.5488C109.982 38.166 109.887 37.6875 109.887 37.1133Z" fill="#00632E"/>
<path d="M126.006 39.6562C124.967 39.6562 124.119 39.4922 123.463 39.1641C122.807 38.8359 122.287 38.4395 121.904 37.9746C121.549 37.4824 121.289 36.9629 121.125 36.416C120.988 35.8418 120.92 35.3223 120.92 34.8574C120.92 34.0371 120.988 33.1758 121.125 32.2734C121.262 31.3438 121.426 30.4961 121.617 29.7305C121.809 28.9375 121.973 28.2676 122.109 27.7207C122.273 27.1738 122.383 26.832 122.438 26.6953C122.684 25.9023 122.998 25.2188 123.381 24.6445C123.791 24.043 124.352 23.6328 125.062 23.4141C125.336 23.3594 125.623 23.3047 125.924 23.25C126.17 23.2227 126.416 23.209 126.662 23.209C126.936 23.209 127.182 23.25 127.4 23.332C126.662 25.2188 126.074 26.791 125.637 28.0488C125.227 29.3066 124.912 30.332 124.693 31.125C124.447 32.0273 124.297 32.752 124.242 33.2988C124.105 34.5293 124.215 35.459 124.57 36.0879C124.926 36.7168 125.65 37.0312 126.744 37.0312C127.455 37.0312 128.139 36.7715 128.795 36.252C129.451 35.7051 130.053 35.0078 130.6 34.1602C130.518 33.7227 130.477 33.2715 130.477 32.8066C130.477 31.9316 130.545 31.084 130.682 30.2637C130.846 29.416 131.023 28.6367 131.215 27.9258C131.434 27.1875 131.652 26.5312 131.871 25.957C132.117 25.3828 132.322 24.9316 132.486 24.6035C132.787 23.9473 133.061 23.5508 133.307 23.4141C133.553 23.25 133.949 23.1543 134.496 23.127C134.715 23.0996 134.893 23.0996 135.029 23.127C135.193 23.127 135.33 23.1406 135.439 23.168C135.768 23.25 135.932 23.4141 135.932 23.6602C135.932 24.0977 135.904 24.7539 135.85 25.6289C135.795 26.5039 135.631 27.4062 135.357 28.3359C135.166 29.1016 134.975 29.7578 134.783 30.3047C134.619 30.8242 134.455 31.2754 134.291 31.6582C134.127 32.0137 133.963 32.3145 133.799 32.5605C133.635 32.7793 133.484 32.9844 133.348 33.1758C133.402 33.9961 133.471 34.6523 133.553 35.1445C133.635 35.6367 133.73 36.0195 133.84 36.293C133.977 36.5391 134.127 36.7168 134.291 36.8262C134.482 36.9082 134.688 36.9492 134.906 36.9492C135.289 36.9492 135.74 36.7715 136.26 36.416C136.779 36.0332 137.312 35.5684 137.859 35.0215C138.434 34.4473 138.994 33.832 139.541 33.1758C140.115 32.4922 140.635 31.8496 141.1 31.248C141.564 30.6465 141.961 30.127 142.289 29.6895C142.617 29.2246 142.822 28.9375 142.904 28.8281C143.096 28.582 143.273 28.4316 143.438 28.377C143.629 28.3223 143.779 28.3496 143.889 28.459C143.998 28.541 144.053 28.6914 144.053 28.9102C144.08 29.1016 144.025 29.3203 143.889 29.5664C143.342 30.6055 142.658 31.7129 141.838 32.8887C141.045 34.0371 140.184 35.1035 139.254 36.0879C138.352 37.0723 137.436 37.8926 136.506 38.5488C135.576 39.2051 134.701 39.5332 133.881 39.5332C133.143 39.5332 132.555 39.2871 132.117 38.7949C131.707 38.2754 131.352 37.5371 131.051 36.5801C130.422 37.5645 129.684 38.3301 128.836 38.877C127.988 39.3965 127.045 39.6562 126.006 39.6562Z" fill="#00632E"/>
<path d="M146.391 37.6055C146.555 37.7148 146.76 37.7695 147.006 37.7695C147.279 37.7695 147.539 37.7148 147.785 37.6055C148.059 37.4961 148.305 37.3457 148.523 37.1543C148.77 36.9629 148.947 36.7168 149.057 36.416C149.166 36.1152 149.166 35.6914 149.057 35.1445C148.947 34.5703 148.77 33.9688 148.523 33.3398C148.305 32.6836 148.059 32.0273 147.785 31.3711C147.512 30.7148 147.279 30.1133 147.088 29.5664C146.924 29.1562 146.787 28.7734 146.678 28.418C146.568 28.1172 146.459 27.8301 146.35 27.5566C146.268 27.2559 146.199 27.0508 146.145 26.9414C146.008 27.1602 145.762 27.5156 145.406 28.0078C145.078 28.5 144.709 29.0195 144.299 29.5664C143.916 30.0859 143.547 30.5781 143.191 31.043C142.836 31.4805 142.59 31.7812 142.453 31.9453C142.234 32.1914 142.016 32.3418 141.797 32.3965C141.605 32.4238 141.441 32.3828 141.305 32.2734C141.168 32.1367 141.086 31.959 141.059 31.7402C141.059 31.4941 141.168 31.207 141.387 30.8789C141.551 30.6602 141.797 30.3184 142.125 29.8535C142.453 29.3613 142.781 28.8691 143.109 28.377C143.438 27.8574 143.738 27.4062 144.012 27.0234C144.285 26.6133 144.436 26.3672 144.463 26.2852C144.518 26.0664 144.436 25.7793 144.217 25.4238C144.025 25.0684 143.998 24.6582 144.135 24.1934C144.244 23.8105 144.49 23.373 144.873 22.8809C145.256 22.3613 145.707 21.8965 146.227 21.4863C146.746 21.0762 147.279 20.7754 147.826 20.584C148.373 20.3652 148.865 20.3652 149.303 20.584C149.658 20.8027 149.945 21.0488 150.164 21.3223C150.383 21.5684 150.465 21.8281 150.41 22.1016C150.355 22.2383 150.273 22.416 150.164 22.6348C150.055 22.8535 149.891 23.127 149.672 23.4551C149.453 23.7559 149.139 24.1523 148.729 24.6445C148.811 25.2734 148.92 25.8477 149.057 26.3672C149.221 26.8867 149.371 27.3379 149.508 27.7207C149.672 28.1855 149.85 28.6094 150.041 28.9922C150.287 29.4844 150.547 29.9902 150.82 30.5098C151.094 31.0293 151.34 31.5488 151.559 32.0684C151.777 32.5605 151.955 33.0254 152.092 33.4629C152.229 33.9004 152.27 34.2695 152.215 34.5703C152.133 35.0352 151.887 35.5957 151.477 36.252C151.094 36.9082 150.602 37.5508 150 38.1797C149.426 38.7812 148.756 39.3008 147.99 39.7383C147.252 40.1758 146.473 40.3945 145.652 40.3945C145.078 40.3945 144.518 40.2168 143.971 39.8613C143.451 39.5059 143 39.0957 142.617 38.6309C142.262 38.1387 141.988 37.6602 141.797 37.1953C141.633 36.7305 141.619 36.375 141.756 36.1289C141.92 35.8008 142.07 35.541 142.207 35.3496C142.344 35.1582 142.549 34.9395 142.822 34.6934C142.932 34.6113 143.068 34.5156 143.232 34.4062C143.369 34.3242 143.561 34.2422 143.807 34.1602C144.053 34.0781 144.34 33.9824 144.668 33.873C144.941 34.7207 145.188 35.3906 145.406 35.8828C145.625 36.3477 145.803 36.7168 145.939 36.9902C146.104 37.291 146.254 37.4961 146.391 37.6055Z" fill="#00632E"/>
</svg>
