<svg width="96" height="104" viewBox="0 0 96 104" fill="none" xmlns="http://www.w3.org/2000/svg">
<path d="M37.9714 15.6804L39.3607 10.0845L41.3754 15.4866C46.0343 27.9749 56.0045 37.4625 68.2948 40.9874L73.9438 42.6081L68.5147 44.8594C56.7039 49.7549 47.8718 60.3119 44.6596 73.2473L43.2702 78.8432L41.2556 73.4412C36.5977 60.9529 26.6265 51.4652 14.3362 47.9403L8.68718 46.3196L14.1173 44.0683C25.9271 39.1728 34.7592 28.6158 37.9714 15.6804Z" fill="#E74C3C" stroke="black" stroke-width="3.59057"/>
<path d="M83.5961 6.89107C81.0572 12.439 73.6791 22.7855 64.4801 19.7879M74.0658 36.8142C76.7756 30.716 84.4966 19.2689 93.7039 22.2685M83.5544 6.56172C83.1646 10.5087 84.6759 19.1501 93.8405 22.1361M74.171 36.982C74.6953 32.5941 73.4519 23.0721 64.28 20.0829M16.1299 69.6744C17.5245 75.5913 22.7712 87.1385 32.6059 85.9951M19.5569 100.801C18.106 94.3123 12.7405 81.6197 2.89746 82.7652M16.2904 69.3284C15.8631 73.2587 12.5633 81.4061 2.77448 82.5452M19.364 100.976C19.7466 96.5886 22.963 87.5262 32.7612 86.3849" stroke="black" stroke-width="2.65567" stroke-linecap="round"/>
</svg>
