<svg width="108" height="108" viewBox="0 0 108 108" fill="none" xmlns="http://www.w3.org/2000/svg">
<g filter="url(#filter0_d_1_87)">
<path d="M70.9921 91.4806C69.3141 93.2219 58.0998 92.7328 56.1865 91.3753C52.1926 88.8181 24.8898 54.0125 49.7303 44.8086C68.6511 37.7107 72.2145 55.0641 74.123 56.5842C77.7776 59.6197 74.1808 88.156 70.9921 91.4806Z" fill="#EBA352"/>
<path d="M10.865 88.592C39.1518 89.5778 25.213 93.2405 47.8137 93.8981C56.7564 94.1583 64.5687 88.5273 64.8053 80.3975L64.81 80.2349C51.0965 70.5601 74.3919 75.3063 71.4535 53.2519C70.5283 45.902 62.7379 45.1871 52.5228 43.9134C43.9289 42.8497 14.5026 53.0593 14.5026 53.0593C3.98773 56.4962 -0.841843 88.2513 10.865 88.592Z" fill="#F8C24F"/>
<path d="M73.3096 39.799C68.8468 36.5773 47.1429 44.2451 47.1429 44.2451L59.348 77.7977C59.348 77.7977 105.888 77.8501 91.1357 64.7277C78.7608 53.7899 79.523 44.3736 73.3096 39.799Z" fill="#F8C24F"/>
<path d="M92.5565 66.2336C95.8734 75.2804 63.1492 75.7928 58.7544 75.8277L59.5106 77.8025C59.5106 77.8025 102.474 77.7507 92.5565 66.2336ZM60.5519 58.793C54.7777 67.0871 52.2867 68.8047 52.2867 68.8047C52.2867 68.8047 57.8528 67.6648 61.7533 62.2454L60.5519 58.793Z" fill="#EBA352"/>
<path d="M60.9292 57.0139C58.4902 56.943 60.5838 68.8834 57.725 72.0549C58.3139 74.1875 62.5792 73.0098 62.5792 73.0098C62.5792 73.0098 61.7043 58.3384 61.8905 57.5301L60.9292 57.0139Z" fill="#EBA352"/>
<path d="M73.3041 67.9517L70.7942 70.3196C70.7942 70.3196 49.1147 49.1845 43.0544 44.9398L50.4185 43.5268L73.3041 67.9517Z" fill="#EBA352"/>
<path d="M91.1629 74.9806L83.8052 81.764L29.1796 24.0317L36.3746 17.2436L91.1629 74.9806Z" fill="#12994B"/>
<path d="M35.1986 18.5112L30.3508 22.9267L24.3473 16.7309L29.1997 12.1528L35.1986 18.5112ZM44.9608 24.1655L35.5952 32.8433L34.0118 31.3326L43.5447 22.4969L44.9608 24.1655Z" fill="#574137"/>
<path d="M59.2442 36.6233L57.9103 37.7236L43.5447 22.4969L44.716 21.3919L59.2442 36.6233Z" fill="#574137"/>
<path d="M83.8052 81.764L99.4841 91.0078L91.1629 74.9806L83.8052 81.764Z" fill="#A9B5AE"/>
<path d="M101.254 91.7103L100.082 92.8153L96.9252 89.4688L98.0964 88.3637L101.254 91.7103Z" fill="#574137"/>
<path d="M40.5945 84.7378C40.2977 83.7527 40.1588 82.935 40.0246 81.9547C39.8762 81.4622 39.7278 80.9697 39.5841 80.3146C38.1616 73.2757 64.7971 69.4942 64.7971 69.4942L66.7624 69.0632C71.0183 68.2106 80.3193 67.3421 86.9212 75.3454C91.4756 81.0108 86.4369 86.3971 82.0374 86.5946C70.1348 87.3874 61.2695 90.0586 54.5227 92.6288C48.5888 95.2226 42.8253 91.9629 40.5945 84.7378Z" fill="#F8C24F"/>
<path d="M66.8493 71.6694C71.1193 70.3291 78.0572 66.7881 86.6102 74.8481C78.769 64.6933 65.4522 69.3505 64.9597 69.4989C52.5551 70.7653 44.5673 65.6509 44.5673 65.6509C46.8264 71.9005 60.7718 73.6081 66.8493 71.6694ZM47.0622 91.7607C24.4615 91.1031 38.2378 87.4357 10.1135 86.4546C7.67461 86.3836 5.79443 83.8879 4.7225 81.5785C5.40774 85.9922 7.7757 88.5021 10.865 88.592C39.1518 89.5778 25.3708 93.4078 47.9715 94.0655C56.9143 94.3257 65.5017 90.019 72.7221 87.9509C72.8894 87.793 55.5172 92.0068 47.0622 91.7607Z" fill="#EBA352"/>
</g>
<defs>
<filter id="filter0_d_1_87" x="-2" y="7.62939e-06" width="109.089" height="113.089" filterUnits="userSpaceOnUse" color-interpolation-filters="sRGB">
<feFlood flood-opacity="0" result="BackgroundImageFix"/>
<feColorMatrix in="SourceAlpha" type="matrix" values="0 0 0 0 0 0 0 0 0 0 0 0 0 0 0 0 0 0 127 0" result="hardAlpha"/>
<feOffset dx="-2" dy="6"/>
<feColorMatrix type="matrix" values="0 0 0 0 0 0 0 0 0 0 0 0 0 0 0 0 0 0 1 0"/>
<feBlend mode="normal" in2="BackgroundImageFix" result="effect1_dropShadow_1_87"/>
<feBlend mode="normal" in="SourceGraphic" in2="effect1_dropShadow_1_87" result="shape"/>
</filter>
</defs>
</svg>
